<svg xmlns="http://www.w3.org/2000/svg" viewBox="0 0 100 100">
  <rect width="100" height="100" fill="green" rx="0"/>
  <path fill="#fff" d="m12.05 48.82-.38-3.69q-.14-1.44.14-1.44.68 0 2.5 1.49.62.52.77.79.14.26.14.79 0 .72.07 1.82.08 1.11.17 1.23.1.12 1.56-.39 1.47-.5 3.1-.93 1.1-.29 1.46-.31.36-.03.89.16.67.29 1.25 1.16.33.62.41.93.07.31-.17 1.42-.24 1.53-.43 3.26-.1 1.44-.34 2.59-.24 1.16-.48 1.16-.1 0-.19.52-.43 1.83-2.31 3.75-1 1.15-1.51 1.34-.5.19-.84-.43-.33-.53-.79-1.03-.46-.51-.46-.65t-1.34-1.49l-.34-.29q-.76-.81-1-.79-.24.03-.82.84-.24.24-.29.39l-.86 1-.36.56q-.07.12-1.9 1.65l-2.54 2.26q-1.25 1.01-1.54.67 0-.1.41-.48t.41-.6q0-.22.48-.7.53-.48 1.41-1.84.89-1.37 1.32-2.33.44-1.06.63-1.3.09-.14.62-1.65l.87-2.52q.72-2.5.28-6.92Zm7.68 3.08q.05-.58.03-.72-.03-.15-.31-.1-.48 0-2.04.62-1.56.63-1.85.92-.15.14-.34 1.92-.19 1.77-.48 2.78-.29 1.01-.21 1.13.07.12 1.44.55 1.36.43 1.75.43.29 0 .72-.69.43-.7.24-.84-.1-.15.24-.87.33-.72.48-2.49.14-1.78.33-2.64Zm11.91-19.68q1.15-.48 2.49.04.48.24 1.68 1.35.77.77.94 1.01.17.24.07.72-.38 1.77-1.68 2.16-.81.24-1.13.19-.31-.05-.74-.34l-1.34-1.15q-.87-.72-1.18-1.34-.31-.63-.6-.96-.14-.2-.1-.36.05-.17.44-.51.57-.53 1.15-.81Zm-8.02-3.36q.58-.82 1.63.09.72.53.89.96.17.43.17 1.35.1 1.2.26 2.2.17 1.01.39 3.17.21 2.16.41 2.5.14.24.28.24.15 0 .68-.15.62-.24 1.48-.12.87.12 1.3.46.34.29.67 1.1.34.82.29 1.23-.05.41-.29.48t-1.53.12l-1.83.14-.05.91q-.04.92.39 2.48l.6 2.18q.17.62.31.89.14.26.29.93.19.96.55 1.8.36.84.5.8.44-.2 1.23-2.31t.74-3.07q0-.48.1-.62.09-.15.38-.15.53 0 1.06.34.62.43 1.63 1.41 1.01.99 1.01 1.28 0 1-2.55 3.79-.48.62-.48.86t-.45.82q-.46.57-.79 1.2-.2.38-.17.55.02.17.21.6.39.62.53.91.15.29.72 1.11 2.69 3.5 5.33 4.8 1.06.57 1.49.62.43.05 1.2-.29.57-.19.79-.81.22-.63.41-2.31.19-2.06.57-1.58.48.62.92 4.85.14 1.58.12 2.13-.03.55-.27 1.32-.38 1.2-.41 1.66-.02.45-.55 1.17-.33.44-.57.53-.24.1-.96.1-2.4 0-4.85-1.63-1.25-.82-3.82-3.44-2.57-2.61-2.85-3.33-.1-.24-.63-.96l-.57-.72-.92.67q-1.58 1.2-1.77 1.49-.19.33-1.3 1.05-1.1.72-1.82 1.35-1.15.81-1.06.24v-.15q.15-.28-.19-.36-.34-.07 1.49-1.94 1.58-1.63 2.73-3.22 1.16-1.58 1.16-2.11 0-.53-.65-2.11-.65-1.58-.65-1.92 0-.34-.29-.91-.57-1.25-1.15-4.13-.34-1.63-.62-2.74-.29-1.1-.41-2.23t-.22-1.32q-.09-.19-1.1-.09-1.01.09-1.25.28-.24.15-1.1.29-.87.15-1.73.72l-.82.58-1.15-.39q-1.25-.43-1.37-.67-.12-.24.46-.81 1.44-1.16 5.09-2.12l2.68-.72-.14-5.37q-.05-3.7-.02-4.63.02-.94.21-1.32ZM70.9 52.95q.67.19 2.14-.36 1.46-.55 3.07-.72 1.61-.17 4.25-.17 2.16 0 2.9.2.75.19 1.71.96.72.67.81.67.24 0 .36.79t-.02 1.27q-.19.67-.34 1.87-.29 1.78-.79 3.12-.5 1.35-1.08 1.64-.29.19.05.43.38.29.77 1.03.38.74.52 1.42.15.76-.48 1.65-.62.89-1.17 1.01-.55.12-1.85-.46-1.39-.52-2.93-.48-1.39.05-3.24.41-1.85.36-2.06.6-.22.24-.7.87-1.01 1.2-1.44.14-.19-.43-.81-1.51-.63-1.08-.51-1.37.12-.29-.29-2.06-.4-1.78-.62-3.29-.22-1.51-.5-2.43-.53-1.82-.34-2.85t1.2-1.95q.43-.52.67-.57.24-.05.72.14Zm8.98 3.65q0-.14-1.27-.22-1.28-.07-2.79.05-1.51.12-2.23.27l-1.1.38.04 1.87q.05 1.87.24 2.26.2.38.24 1.2l.05.81.96-.09q.87-.15 2.55-.34l1.72-.29.44-1.1q.28-.77.72-2.57.43-1.8.43-2.23ZM58.47 32.17q.19-.87.43-1.03.24-.17 1.85-.08 1.61.1 2.76.65 1.15.55 1.25.7.09.14.33 1.58.15.91.1 1.3-.05.38-.24 1.05-.48.96-.7.96-.21 0-.21.29t-.39.51q-.38.21-1.17-.44-.79-.64-1.27-1t-.87-1.13q-.38-.77-1.2-1.59-.57-.62-.67-.88-.1-.27 0-.89Zm20.93-1.39q.67-.2 1.85-.15 1.17.05 1.46.19.38.24.38 1.3 0 .77-.09 1.08-.1.31-.58.79-.57.58-.96.63-.38.04-1.15-.34-.82-.43-1.42-.31t-.72-.1q-.12-.21-.55-.21-.19 0-.26.12t-.03.55q.2.67.48 1.44.29.77.05 1.01-.38.52.48.67.43.05 1.2.09 1.68.2 3.17.96 1.44.68 1.68 1.06t-.19 1.3q-.48.91-.39 1.08.1.16-.28 1.96-.39 1.8-.32 1.85.08.05 3.51.07 3.43.03 4.82.22 1.39.19 1.8.26.41.08.75.7.48.91.16 1.82-.31.92-1.17 1.3-.53.19-1.73.17-1.2-.03-1.39-.22-.34-.24-6.43-.77-1.54-.09-4.06.15-2.52.24-5.06.43-3.36.19-5.43.65-2.06.45-2.06.89 0 .24-.19.28-.15.1-.63 1.06-.48.96-.62 1.49-.15.57-.7 2.01-.55 1.44-.74 2.16-1.3 5.24-1.97 6.15-.14.19-.34 1.1-.09.87-.79 1.95-.69 1.08-1.37 1.27-.62.24-1.15.14-.43-.14-1.32-1.01-.89-.86-1.03-1.34-.14-.53-.38-.77-.63-.81-.65-1.17-.03-.36.36-1.23 1.05-2.35 1.41-3.86.36-1.51.46-4.35.1-1.92.17-4.27.07-2.35.02-3.98t-.09-1.63q-.2 0-.92.5t-1.24 1.03q-.63.63-1.01.65-.39.02-1.11-.46-.57-.38-.79-1-.21-.63-.02-1.11.19-.29.24-.53 0-.62 2.23-2.04 2.23-1.41 3.96-1.89.82-.29 1.66-.07.84.21 1.17.79.29.33.29.55 0 .22-.24.84-.19.67-.48 4.42-.29 3.74-.38 6.76-.1 3.03.04 3.51.1 0 1.11-1.39 1.01-1.4 1.15-1.73.1-.24.86-1.2.72-.87.77-1.2.05-.34-.43-.43-.62-.2-.98-.65-.36-.46-.22-.94.1-.57.36-.57t.55-.34q.39-.38 4.27-1.25 2.07-.43 2.12-1.29 0-.2.62-.96.53-.68 1.27-2.24.75-1.56.75-2.04 0-.38-.17-.38t-1.08.34q-.72.24-.89.24-.17 0-.5-.29l-.44-.43.44-.53q.48-.58 1.72-1.11l1.25-.62.29-1.58q.19-1.64.38-2.16.05-.34 0-.46-.04-.12-.33-.12-.43 0-1.06.34-.62.33-1.39.09-1.1-.29-1.15-.91 0-.24.19-.34.34-.19.34-.52 0-.34.43-.63 1.01-.62 5.76-1.01l2.64-.28Zm-.24 9.31q-.1-.15-1.3-.15-1.82 0-1.82 1.01 0 .91-1.44 3.07-.58.87-.58 1.06 0 .19-.41.67-.4.48-.4.72 0 .05.88.1.89.05 1.95 0 1.05-.05 1.53-.15.44-.04.6-.4.17-.36.51-1.95.19-1.1.36-2.47.17-1.37.12-1.51Z"/>
</svg>